<?xml version="1.0" encoding="UTF-8" standalone="no"?>
<!DOCTYPE svg PUBLIC "-//W3C//DTD SVG 1.1//EN" "http://www.w3.org/Graphics/SVG/1.1/DTD/svg11.dtd">
<svg width="100%" height="100%" viewBox="0 0 2863 701" version="1.1" xmlns="http://www.w3.org/2000/svg" xmlns:xlink="http://www.w3.org/1999/xlink" xml:space="preserve" xmlns:serif="http://www.serif.com/" style="fill-rule:evenodd;clip-rule:evenodd;stroke-linejoin:round;stroke-miterlimit:1.41421;">
    <g transform="matrix(1,0,0,1,-8580.09,-265.05)">
        <g transform="matrix(4.16667,0,0,4.16667,8257.94,0)">
            <g id="Camada-1" serif:id="Camada 1">
                <g transform="matrix(1,0,0,1,557.35,170.451)">
                    <path d="M0,-18.05C1.703,-25.003 6.669,-29.544 14.474,-29.544C21.854,-29.544 26.82,-25.571 28.097,-18.05L0,-18.05ZM47.717,-4.995C48.143,-7.549 48.143,-10.245 48.143,-12.8C48.143,-33.517 32.959,-47.282 12.951,-47.282C0.261,-47.282 -9.965,-42.268 -16.353,-34.025C-12.651,-27.469 -10.53,-19.707 -10.53,-11.31C-10.53,-2.984 -12.612,4.719 -16.255,11.239C-9.696,19.593 0.854,24.663 13.944,24.663C30.973,24.663 44.17,15.722 47.433,1.532L24.729,1.532C22.742,4.654 19.053,6.499 14.228,6.499C5.431,6.499 0.605,1.674 -1.238,-4.57L47.859,-4.57L47.717,-4.995ZM-386.948,-37.778L-386.948,-70.771L-409.693,-70.771L-433.491,-31.816L-457.29,-70.771L-480.034,-70.771L-480.034,22.314L-456.707,22.314L-456.707,-26.856L-435.4,8.105L-431.582,8.105L-410.276,-26.856L-410.276,22.314L-386.948,22.314L-386.948,14.415C-392.176,7.153 -395.005,-1.855 -395.005,-11.604C-395.005,-21.42 -392.177,-30.496 -386.948,-37.778M-365.253,-18.273C-363.55,-25.226 -358.584,-29.767 -350.779,-29.767C-343.399,-29.767 -338.434,-25.794 -337.156,-18.273L-365.253,-18.273ZM-341.757,-46.513L-341.757,-55.526L-362.319,-55.526L-362.319,-45.981C-377.738,-41.662 -387.39,-28.554 -387.39,-11.604C-387.39,5.211 -377.742,18.195 -362.319,22.709L-362.319,31.295L-341.757,31.295L-341.757,23.712C-328.709,21.344 -319.025,13.173 -316.297,1.309L-339.001,1.309C-340.987,4.431 -344.677,6.277 -349.502,6.277C-358.3,6.277 -363.124,1.451 -364.969,-4.792L-315.871,-4.792L-316.013,-5.218C-315.587,-7.772 -315.587,-10.468 -315.587,-13.023C-315.587,-30.489 -326.38,-43.012 -341.757,-46.513M-51.179,3.121C-59.579,3.121 -65.223,-2.678 -65.223,-11.31C-65.223,-19.942 -59.579,-25.74 -51.179,-25.74C-42.779,-25.74 -37.136,-19.942 -37.136,-11.31C-37.136,-2.678 -42.779,3.121 -51.179,3.121M-50.35,-46.743C-57.669,-46.743 -63.682,-44.727 -68.269,-40.742L-68.269,-44.934L-83.249,-44.934L-83.249,7.666C-83.249,13.997 -85.971,19.703 -90.304,23.679L-90.304,52.721L-68.269,52.721L-68.269,18.122C-63.682,22.107 -57.669,24.124 -50.35,24.124C-32.291,24.124 -18.146,8.559 -18.146,-11.31C-18.146,-31.179 -32.291,-46.743 -50.35,-46.743M-110.852,-8.338C-110.852,-0.504 -114.546,3.637 -121.536,3.637C-127.741,3.637 -131.445,-0.26 -131.445,-6.788L-131.445,-44.934L-155.004,-44.934L-155.004,-40.291C-148.028,-32.749 -143.814,-22.612 -143.814,-11.31C-143.814,-2.434 -146.413,5.723 -150.906,12.471C-146.119,20.426 -137.796,24.124 -129.519,24.124C-122.531,24.124 -116.48,22.055 -112.375,18.354L-112.375,22.314L-104.047,22.314C-96.477,22.314 -90.339,16.178 -90.339,8.606L-90.339,-44.934L-110.852,-44.934L-110.852,-8.338ZM-186.467,2.604C-194.431,2.604 -199.993,-3.117 -199.993,-11.31C-199.993,-19.502 -194.431,-25.224 -186.467,-25.224C-178.502,-25.224 -172.939,-19.502 -172.939,-11.31C-172.939,-3.117 -178.502,2.604 -186.467,2.604M-186.467,-46.743C-195.794,-46.743 -204.176,-43.337 -210.456,-37.679C-210.653,-26.955 -214.988,-17.401 -222.008,-10.476C-221.576,8.992 -206.127,24.124 -186.467,24.124C-166.525,24.124 -150.903,8.559 -150.903,-11.31C-150.903,-31.179 -166.525,-46.743 -186.467,-46.743M-250.506,-28.141L-262.74,-28.141L-262.74,-48.735L-250.506,-48.735C-245.003,-48.735 -240.854,-44.308 -240.854,-38.438C-240.854,-32.568 -245.003,-28.141 -250.506,-28.141M-250.506,-70.771L-286.067,-70.771L-286.067,22.314L-262.74,22.314L-262.74,-6.105L-250.506,-6.105C-232.013,-6.105 -217.526,-20.307 -217.526,-38.438C-217.526,-56.569 -232.013,-70.771 -250.506,-70.771" style="fill:white;fill-rule:nonzero;"/>
                </g>
                <g transform="matrix(1,0,0,1,692.232,97.7784)">
                    <path d="M0,71.666C-4.745,71.736 -8.728,67.872 -8.799,63.126C-8.87,58.381 -5.005,54.397 -0.259,54.327C4.486,54.256 8.47,58.121 8.541,62.866C8.612,67.612 4.746,71.595 0,71.666M-9.188,6.63L7.238,6.384L7.512,24.636L5.115,47.492L-5.836,47.656L-8.915,24.882L-9.188,6.63ZM71.205,26.071C64.895,-12.995 28.109,-39.549 -10.956,-33.239C-50.022,-26.929 -76.576,9.855 -70.267,48.921C-68.345,60.819 -63.584,71.546 -56.806,80.548L-59.589,94.765C-59.867,96.187 -58.77,97.506 -57.32,97.49L-38.991,97.293C-24.522,106.847 -6.571,111.215 11.895,108.231C50.961,101.922 77.515,65.137 71.205,26.071" style="fill:white;fill-rule:nonzero;"/>
                </g>
                <g transform="matrix(1,0,0,1,84.8613,224.462)">
                    <path d="M0,-1.752C0.599,-2.314 0.898,-3.118 0.898,-4.166C0.898,-5.244 0.599,-6.064 0,-6.624C-0.599,-7.186 -1.579,-7.467 -2.941,-7.467L-5.95,-7.467L-5.95,-0.91L-2.941,-0.91C-1.579,-0.91 -0.599,-1.19 0,-1.752M-5.95,0.437L-5.95,7.039L-7.545,7.039L-7.545,-8.791L-2.807,-8.791C-1.025,-8.791 0.303,-8.379 1.179,-7.556C2.055,-6.732 2.492,-5.604 2.492,-4.166C2.492,-2.699 2.039,-1.565 1.134,-0.765C0.228,0.037 -1.086,0.437 -2.807,0.437L-5.95,0.437Z" style="fill:white;fill-rule:nonzero;"/>
                </g>
                <g transform="matrix(1,0,0,1,101.78,229.411)">
                    <path d="M0,-11.651C-0.921,-11.113 -1.646,-10.341 -2.179,-9.339C-2.71,-8.337 -2.976,-7.169 -2.976,-5.836C-2.976,-4.504 -2.71,-3.337 -2.179,-2.333C-1.646,-1.331 -0.921,-0.559 0,-0.021C0.92,0.518 1.957,0.787 3.109,0.787C4.262,0.787 5.299,0.518 6.219,-0.021C7.14,-0.559 7.866,-1.331 8.397,-2.333C8.929,-3.337 9.194,-4.504 9.194,-5.836C9.194,-7.169 8.929,-8.337 8.397,-9.339C7.866,-10.341 7.14,-11.113 6.219,-11.651C5.299,-12.191 4.262,-12.46 3.109,-12.46C1.957,-12.46 0.92,-12.191 0,-11.651M7.062,-12.886C8.229,-12.198 9.146,-11.241 9.812,-10.012C10.478,-8.786 10.811,-7.393 10.811,-5.836C10.811,-4.28 10.478,-2.883 9.812,-1.648C9.146,-0.414 8.229,0.548 7.062,1.237C5.894,1.925 4.576,2.269 3.109,2.269C1.643,2.269 0.325,1.925 -0.843,1.237C-2.01,0.548 -2.927,-0.414 -3.593,-1.648C-4.259,-2.883 -4.592,-4.28 -4.592,-5.836C-4.592,-7.393 -4.259,-8.786 -3.593,-10.012C-2.927,-11.241 -2.01,-12.198 -0.843,-12.886C0.325,-13.575 1.643,-13.92 3.109,-13.92C4.576,-13.92 5.894,-13.575 7.062,-12.886" style="fill:white;fill-rule:nonzero;"/>
                </g>
                <g transform="matrix(1,0,0,1,124.918,223.462)">
                    <path d="M0,0.248L3.144,0.248C5.688,0.248 6.961,-0.853 6.961,-3.053C6.961,-5.299 5.688,-6.421 3.144,-6.421L0,-6.421L0,0.248ZM6.894,8.039L2.56,1.437L0,1.437L0,8.039L-1.594,8.039L-1.594,-7.791L3.256,-7.791C5.037,-7.791 6.365,-7.371 7.241,-6.534C8.117,-5.695 8.555,-4.564 8.555,-3.144C8.555,-1.826 8.185,-0.777 7.443,0C6.703,0.779 5.629,1.242 4.222,1.393L8.689,8.039L6.894,8.039Z" style="fill:white;fill-rule:nonzero;"/>
                </g>
                <g transform="matrix(1,0,0,1,169.511,215.694)">
                    <path d="M0,15.807L-1.595,15.807L-10.262,2.581L-10.262,15.807L-11.856,15.807L-11.856,0L-10.262,0L-1.595,13.247L-1.595,0L0,0L0,15.807Z" style="fill:white;fill-rule:nonzero;"/>
                </g>
                <g transform="matrix(1,0,0,1,189.449,221.15)">
                    <path d="M0,5.231L-3.121,-3.301L-6.287,5.231L0,5.231ZM0.472,6.489L-6.735,6.489L-8.173,10.351L-9.856,10.351L-4.019,-5.12L-2.245,-5.12L3.593,10.351L1.887,10.351L0.472,6.489Z" style="fill:white;fill-rule:nonzero;"/>
                </g>
                <g transform="matrix(1,0,0,1,212.375,231.501)">
                    <path d="M0,-15.83L0,-14.55L-4.514,-14.55L-4.514,0L-6.086,0L-6.086,-14.55L-10.576,-14.55L-10.576,-15.83L0,-15.83Z" style="fill:white;fill-rule:nonzero;"/>
                </g>
                <g transform="matrix(1,0,0,1,234.087,231.501)">
                    <path d="M0,-15.83L0,0L-1.571,0L-1.571,-7.499L-10.149,-7.499L-10.149,0L-11.743,0L-11.743,-15.83L-10.149,-15.83L-10.149,-8.802L-1.571,-8.802L-1.571,-15.83L0,-15.83Z" style="fill:white;fill-rule:nonzero;"/>
                </g>
                <g transform="matrix(1,0,0,1,254.048,221.15)">
                    <path d="M0,5.231L-3.121,-3.301L-6.287,5.231L0,5.231ZM0.472,6.489L-6.735,6.489L-8.173,10.351L-9.856,10.351L-4.019,-5.12L-2.245,-5.12L3.593,10.351L1.887,10.351L0.472,6.489Z" style="fill:white;fill-rule:nonzero;"/>
                </g>
                <g transform="matrix(1,0,0,1,269.294,216.928)">
                    <path d="M0,13.316L5.748,13.316L5.748,14.573L-1.595,14.573L-1.595,-1.257L0,-1.257L0,13.316Z" style="fill:white;fill-rule:nonzero;"/>
                </g>
                <g transform="matrix(-1,-0,-0,1,571.705,151.881)">
                    <rect x="285.055" y="63.79" width="1.595" height="15.83" style="fill:white;"/>
                </g>
                <g transform="matrix(1,0,0,1,306.589,221.15)">
                    <path d="M0,5.231L-3.121,-3.301L-6.287,5.231L0,5.231ZM0.472,6.489L-6.735,6.489L-8.173,10.351L-9.857,10.351L-4.02,-5.12L-2.245,-5.12L3.593,10.351L1.886,10.351L0.472,6.489Z" style="fill:white;fill-rule:nonzero;"/>
                </g>
                <g transform="matrix(1,0,0,1,342.604,221.15)">
                    <path d="M0,5.231L-3.121,-3.301L-6.287,5.231L0,5.231ZM0.471,6.489L-6.736,6.489L-8.173,10.351L-9.857,10.351L-4.02,-5.12L-2.246,-5.12L3.592,10.351L1.886,10.351L0.471,6.489Z" style="fill:white;fill-rule:nonzero;"/>
                </g>
                <g transform="matrix(1,0,0,1,357.851,223.462)">
                    <path d="M0,0.248L3.143,0.248C5.687,0.248 6.96,-0.853 6.96,-3.053C6.96,-5.299 5.687,-6.421 3.143,-6.421L0,-6.421L0,0.248ZM6.893,8.039L2.559,1.437L0,1.437L0,8.039L-1.595,8.039L-1.595,-7.791L3.255,-7.791C5.037,-7.791 6.365,-7.371 7.241,-6.534C8.116,-5.695 8.555,-4.564 8.555,-3.144C8.555,-1.826 8.185,-0.777 7.442,0C6.702,0.779 5.628,1.242 4.221,1.393L8.688,8.039L6.893,8.039Z" style="fill:white;fill-rule:nonzero;"/>
                </g>
                <g transform="matrix(1,0,0,1,388.566,230.278)">
                    <path d="M0,-13.383C1.242,-12.463 2.118,-11.194 2.627,-9.576L0.966,-9.576C0.547,-10.714 -0.149,-11.62 -1.122,-12.293C-2.096,-12.968 -3.301,-13.304 -4.737,-13.304C-5.83,-13.304 -6.822,-13.034 -7.713,-12.496C-8.604,-11.957 -9.304,-11.186 -9.813,-10.184C-10.321,-9.18 -10.575,-8.012 -10.575,-6.681C-10.575,-5.348 -10.321,-4.184 -9.813,-3.189C-9.304,-2.193 -8.604,-1.426 -7.713,-0.888C-6.822,-0.349 -5.83,-0.079 -4.737,-0.079C-3.301,-0.079 -2.096,-0.416 -1.122,-1.09C-0.149,-1.763 0.547,-2.669 0.966,-3.807L2.627,-3.807C2.118,-2.19 1.242,-0.922 0,0C-1.243,0.921 -2.814,1.381 -4.715,1.381C-6.167,1.381 -7.462,1.036 -8.6,0.347C-9.737,-0.341 -10.62,-1.295 -11.249,-2.515C-11.878,-3.736 -12.192,-5.123 -12.192,-6.681C-12.192,-8.252 -11.878,-9.653 -11.249,-10.879C-10.62,-12.108 -9.737,-13.061 -8.6,-13.742C-7.462,-14.423 -6.167,-14.764 -4.715,-14.764C-2.814,-14.764 -1.243,-14.304 0,-13.383" style="fill:white;fill-rule:nonzero;"/>
                </g>
                <g transform="matrix(1,0,0,1,403.408,231.658)">
                    <path d="M0,-15.987L0,-6.399C0,-4.708 0.37,-3.466 1.111,-2.673C1.853,-1.878 2.866,-1.482 4.153,-1.482C5.441,-1.482 6.447,-1.878 7.174,-2.673C7.899,-3.466 8.263,-4.708 8.263,-6.399L8.263,-15.987L9.835,-15.987L9.835,-6.399C9.835,-4.258 9.318,-2.657 8.285,-1.594C7.253,-0.531 5.868,0 4.132,0C2.395,0 1.011,-0.531 -0.022,-1.594C-1.056,-2.657 -1.572,-4.258 -1.572,-6.399L-1.572,-15.987L0,-15.987Z" style="fill:white;fill-rule:nonzero;"/>
                </g>
                <g transform="matrix(1,0,0,1,426.019,223.462)">
                    <path d="M0,0.248L3.144,0.248C5.688,0.248 6.961,-0.853 6.961,-3.053C6.961,-5.299 5.688,-6.421 3.144,-6.421L0,-6.421L0,0.248ZM6.894,8.039L2.56,1.437L0,1.437L0,8.039L-1.595,8.039L-1.595,-7.791L3.256,-7.791C5.037,-7.791 6.366,-7.371 7.24,-6.534C8.116,-5.695 8.555,-4.564 8.555,-3.144C8.555,-1.826 8.184,-0.777 7.443,0C6.702,0.779 5.628,1.242 4.221,1.393L8.689,8.039L6.894,8.039Z" style="fill:white;fill-rule:nonzero;"/>
                </g>
                <g transform="matrix(-1,-0,-0,1,891.71,151.881)">
                    <rect x="445.058" y="63.79" width="1.594" height="15.83" style="fill:white;"/>
                </g>
            </g>
        </g>
    </g>
</svg>
